<svg id="SvgjsSvg1990" width="288" height="288" xmlns="http://www.w3.org/2000/svg" version="1.1" xmlns:xlink="http://www.w3.org/1999/xlink" xmlns:svgjs="http://svgjs.com/svgjs"><defs id="SvgjsDefs1991"></defs><g id="SvgjsG1992"><svg xmlns="http://www.w3.org/2000/svg" xmlns:xlink="http://www.w3.org/1999/xlink" viewBox="0 0 340 341.8" width="288" height="288"><path fill="#9ecdde" d="M340 342.3S232.7 267 85.5 313.7c-81 25.7-82.2 28.1-82.2 28.1l336.7.5z" class="colore3e4f7 svgShape"></path><path fill="#b6e9fd" d="M266.9 268.6c32.6-29.6 27.8-77.3 5.4-89-22.4-11.7-47.2-6.1-55.4 10.4-8.3 16.5-26.5 22.3-26.5 22.3s-21.9 10.8-52.9.5c-31.1-10.2-50.9-5.8-63.4 9.5-10.1 12.4-15 37.1 4.7 54.2h177.8c3.8-2.3 7.2-5 10.3-7.9z" class="coloreaebfb svgShape"></path><defs><path id="a" d="M266.9 268.6c32.6-29.6 27.8-77.3 5.4-89-22.4-11.7-47.2-6.1-55.4 10.4-8.3 16.5-26.5 22.3-26.5 22.3s-21.9 10.8-52.9.5c-31.1-10.2-50.9-5.8-63.4 9.5-10.1 12.4-15 37.1 4.7 54.2h177.8c3.8-2.3 7.2-5 10.3-7.9z" fill="#000000" class="color000 svgShape"></path></defs><clipPath id="b"><use overflow="visible" xlink:href="#a"></use></clipPath><path fill="#9fdef3" d="M175.7 177.3s77.3 27.6 42.7 56.9c-38.6 32.6-5.7 43.8 16.1 50.8 24.1 7.7-178.3-5.5-178.3-5.5l3.4-68.7 21-25.1 64.2-5 30.9-3.4z" clip-path="url(#b)" class="colore1e2f5 svgShape"></path><path fill="#df7383" d="M177.7 158s-5 1.3-4 6.3l1.4 3.6 26.1-.5-5-9.2c-1.5-2.7-4.4-4.2-7.4-3.8l-7.3.9-3.8 2.7z" class="colordf7383 svgShape"></path><path fill="#dfb48f" d="M184.1 158.5c-.9.5-2 .2-2.5-.7l-3-5.5 3.3-1.8 3 5.4c.4 1 .1 2.1-.8 2.6z" class="colordfb48f svgShape"></path><path fill="#e5be9c" d="M180.6 157.8c-2.2 1.2-5 .4-6.2-1.8l-2.8-5 8-4.4 2.8 5c1.2 2.2.4 5-1.8 6.2z" class="colore5be9c svgShape"></path><path fill="#282c3c" d="M180.9 151.3s-1.5.1-1.9-1.6c-.4-1.7-2.7-1.3-2.7-1.3l2.2-2.3s3.4-1.3 3.5 3.4l-1.1 1.8z" class="color282c3c svgShape"></path><path fill="#282c3c" d="M178.9 148.5l-6.1 3.4c-.8.4-1.8.4-2.6-.2-.9-.7-1.3-1.6-.6-3.4 1-2.7 2-.7 2-.7s6.4-5.3 7.5-.3l-.2 1.2z" class="color282c3c svgShape"></path><circle cx="181.9" cy="150.4" r="1.4" fill="#e5be9c" class="colore5be9c svgShape"></circle><path fill="#ffffff" d="M176.4 156.4l3.2-1.8s.6 1.3-1.2 2.2c-1.4.7-2-.4-2-.4z" class="colorfff svgShape"></path><path fill="#caf0ff" d="M92.2 133.9s2.3-2.7 3.8-3.9c2.6-2.2 5.5-6.1 15-3.3.7.2 1.4.5 2.2.8.8.4 3.4.4 6.1-1.7 4.2-3.3 5.9-5.9 11.6-5.9 6.7-.1 7.8 8.3 13 10.4 3.3 1.4 12.1 2.7 13.9 3.3l-65.6.3z" class="colorecedfd svgShape"></path><path fill="#57b7dc" d="M272.7 262.8c.5.4 5.5-7.7 7.1-18.2 0 0 .8-5.2-4.3-2.8 0 0 6.2-22.5-7.5-21.4-2.4.2-3.7.6-5.1 2-1.9 1.9-3.1 5.1-1.2 9.8 3.9 9.5 7.5 13.3 5.4 18.1-2.1 5-1.6 6.5 5.6 12.5z" class="color95b9fc svgShape"></path><path fill="#38a6d2" d="M270.6 277.5c-.3-.1-.4-.3-.4-.6 3.9-15.1.6-41 .1-42.2-.2-.2-.1-.5.2-.7.2-.1.5-.1.7.2.9 1.3 3.8 28.3 0 42.9-.1.4-.3.5-.6.4z" class="color648dd6 svgShape"></path><path fill="#127b9e" d="M178.9 299.8h-11.7c-.3 0-.5-.2-.5-.5V287c0-.3.3-.6.6-.6h11.5c.3 0 .6.3.6.6v12.3c0 .3-.2.5-.5.5z" class="colorc9cdea svgShape"></path><path fill="#459ab9" d="M176 297h3.4v-7.4H176c-2 0-3.6 1.6-3.6 3.6v.3c0 1.8 1.6 3.5 3.6 3.5zM166.7 297.4c-.1 0-.1 0-.2-.1-1.1-.8-1.7-1.8-1.7-2.9 0-3 3.8-5.8 3.9-5.9.1-.1.3-.1.4.1.1.1.1.3-.1.4 0 0-3.7 2.8-3.7 5.5 0 .9.5 1.8 1.4 2.5.1.1.2.3.1.4h-.1z" class="color6d67c6 svgShape"></path><path fill="none" stroke="#91dfff" stroke-linecap="round" stroke-linejoin="round" stroke-miterlimit="10" stroke-width=".93" d="M204.9 141.6s1.2-1.4 1.9-2c1.3-1.1 2.8-3.1 7.6-1.6.4.1.7.3 1.1.4.4.2 1.7.2 3.1-.9 2.1-1.7 3-3 5.9-3 3.4 0 3.9 4.2 6.6 5.3 1.7.7 6.1 1.4 7 1.7l-33.2.1z" class="colorStrokeeaebfb svgStroke"></path><g fill="#000000" class="color000 svgShape"><path fill="#59acc3" d="M84.4 169.2c1.6-2 2.6-4.5 2.6-7.3 0-6.3-5.1-11.4-11.4-11.4h-8c-6.3 0-11.4 5.1-11.4 11.4 0 6.3 5.1 11.4 11.4 11.4h8c1.8 0 3.5-.4 5.1-1.2l5.7 3.1-2-6z" class="color93b7fa svgShape"></path><path fill="#ffffff" d="M77.5 160.2h-1.2c-.1-.3-.2-.7-.4-1l.9-.9c.2-.2.2-.6 0-.9l-1-1c-.2-.2-.6-.2-.9 0l-.9.9c-.3-.2-.6-.3-1-.4v-1.2c0-.3-.3-.6-.6-.6h-1.5c-.3 0-.6.3-.6.6v1.2c-.3.1-.7.2-1 .4l-.9-.9c-.2-.2-.6-.2-.9 0l-1 1c-.2.2-.2.6 0 .9l.9.9c-.2.3-.3.6-.4 1h-1.2c-.3 0-.6.3-.6.6v1.5c0 .3.3.6.6.6H67c.1.3.2.7.4 1l-.9.9c-.2.2-.2.6 0 .9l1 1c.2.2.6.2.9 0l.9-.9c.3.2.6.3 1 .4v1.2c0 .3.3.6.6.6h1.5c.3 0 .6-.3.6-.6v-1.2c.3-.1.7-.2 1-.4l.9.9c.2.2.6.2.9 0l1-1c.2-.2.2-.6 0-.9l-.9-.9c.2-.3.3-.6.4-1h1.2c.3 0 .6-.3.6-.6v-1.5c0-.3-.2-.6-.6-.6zm-5.9 4c-1.4 0-2.6-1.2-2.6-2.6s1.2-2.6 2.6-2.6c1.4 0 2.6 1.2 2.6 2.6s-1.1 2.6-2.6 2.6z" class="colorfff svgShape"></path></g><g fill="#000000" class="color000 svgShape"><path fill="#127b9e" d="M151.8 256.5h23.4v14.7h-23.4z" class="colorc9cdea svgShape"></path><path fill="#4d6979" d="M179.7 271.2h-34.4c-3.1 0-5.6 2.5-5.6 5.6h45.5c.1-3.1-2.4-5.6-5.5-5.6z" class="colorbac0df svgShape"></path><path fill="#7cc3de" d="M222.8 257.5H107.2c-4.7 0-8.6-3.8-8.6-8.6v-75.8c0-4.7 3.8-8.6 8.6-8.6h115.6c4.7 0 8.6 3.8 8.6 8.6v75.8c0 4.7-3.8 8.6-8.6 8.6z" class="colordbdffd svgShape"></path><path fill="#127b9e" d="M218 257.5H102.4c-4.7 0-8.6-3.8-8.6-8.6v-75.8c0-4.7 3.8-8.6 8.6-8.6H218c4.7 0 8.6 3.8 8.6 8.6v75.8c-.1 4.7-3.9 8.6-8.6 8.6z" class="colorc9cdea svgShape"></path><path fill="#ffffff" d="M103.3 173.4h114.2v72.3H103.3z" class="colorfff svgShape"></path><path fill="#adb3d5" d="M103.3 173.4h1.4v72.3h-1.4z" class="coloradb3d5 svgShape"></path><path fill="#54c6f9" d="M162.2 255.3c-2.1 0-3.9-1.7-3.9-3.9s1.7-3.9 3.9-3.9c2.1 0 3.9 1.7 3.9 3.9s-1.8 3.9-3.9 3.9zm0-7.1c-1.8 0-3.2 1.4-3.2 3.2 0 1.8 1.4 3.2 3.2 3.2 1.8 0 3.2-1.4 3.2-3.2-.1-1.8-1.5-3.2-3.2-3.2z" class="color8b94c8 svgShape"></path><path fill="#c8c8c8" d="M151.8 257.5l23.4 13.7v-13.7z" opacity=".23" class="colorc8c8c8 svgShape"></path><g fill="#000000" class="color000 svgShape"><path fill="#caf0ff" d="M158.5 198.8h-46.1c-.9 0-1.7-.8-1.7-1.7v-13.9c0-.9.8-1.7 1.7-1.7h46.1c.9 0 1.7.8 1.7 1.7v13.9c0 .9-.8 1.7-1.7 1.7zM144.2 207.5H112c-.8 0-1.4-.6-1.4-1.4 0-.8.6-1.4 1.4-1.4h32.2c.8 0 1.4.6 1.4 1.4 0 .8-.6 1.4-1.4 1.4zM133.2 213.7H112c-.8 0-1.4-.6-1.4-1.4 0-.8.6-1.4 1.4-1.4h21.2c.8 0 1.4.6 1.4 1.4 0 .8-.6 1.4-1.4 1.4zM133.2 220.3H112c-.8 0-1.4-.6-1.4-1.4 0-.8.6-1.4 1.4-1.4h21.2c.8 0 1.4.6 1.4 1.4 0 .8-.6 1.4-1.4 1.4zM208.6 237.4h-39.5c-1.1 0-2-.9-2-2v-51.8c0-1.1.9-2 2-2h39.5c1.1 0 2 .9 2 2v51.8c0 1.1-.9 2-2 2z" class="colorecedfd svgShape"></path><circle cx="119.5" cy="190.3" r="5.3" fill="#59acc3" class="color93b7fa svgShape"></circle></g><g fill="#000000" class="color000 svgShape"><path fill="#52a4ca" d="M153.3 188.6h-22.7c-.2 0-.3-.1-.3-.3 0-.2.1-.3.3-.3h22.7c.2 0 .3.1.3.3 0 .2-.1.3-.3.3zM153.3 192.6h-22.7c-.2 0-.3-.1-.3-.3 0-.2.1-.3.3-.3h22.7c.2 0 .3.1.3.3 0 .2-.1.3-.3.3z" class="color8992c6 svgShape"></path></g><path fill="none" stroke="#fff" stroke-linecap="round" stroke-linejoin="round" stroke-miterlimit="10" stroke-width="2.213" d="M174.1 220.2h17.2M174.1 226.8h28.7" class="colorStrokefff svgStroke"></path><g fill="#000000" class="color000 svgShape"><path fill="#57b7dc" d="M172.9 191.4v18.5c0 1.4 1.1 2.6 2.6 2.6h25.9c1.4 0 2.6-1.1 2.6-2.6v-18.5c0-1.4-1.1-2.6-2.6-2.6h-25.9c-1.4 0-2.6 1.2-2.6 2.6z" class="color95b9fc svgShape"></path><circle cx="182.2" cy="198" r="5.9" fill="#0092ca" class="color583bf9 svgShape"></circle><path fill="#ffffff" d="M172.9 208v1.9c0 1.4 1.1 2.6 2.6 2.6h25.9c1.4 0 2.6-1.1 2.6-2.6V208l-9.2-9.2-6.3 6.3-6.3-6.3-9.3 9.2z" class="colorfff svgShape"></path></g></g><g fill="#000000" class="color000 svgShape"><path fill="#0092ca" d="M59 223.4l-.4.1c-1.9.6-3.4 2.1-3.6 4l-1.2 17.2c7.1 2.6 15.2-1.9 15.2-1.9l-.2-15.5c0-1.8-.9-3.5-2.9-3.9H59z" class="color583bf9 svgShape"></path><path fill="#3d415b" d="M68.5 248l1.1 4.3-13.2.7.5-5.4z" class="color3d415b svgShape"></path><path fill="#3d415b" d="M63.1 250.8l5.4 12.9 2 19.5 4.3-1.3-.8-18.5-4.7-12.2z" class="color3d415b svgShape"></path><path fill="#0092ca" d="M63.8 252.6l2.9-.2-1.8 2.7z" opacity=".44" class="colorcacaca svgShape"></path><path fill="#3d415b" d="M56.5 252.2l-.9 12.1-3.7 20 4.6.9 4.5-20.4 1.5-13.9z" class="color3d415b svgShape"></path><path fill="#29323d" d="M74.3 283.3l-2.5.3.4 3.6 7.2-.8c-.1-.6-.6-1-1.1-1l-3.7-.4-.3-1.7z" class="color29323d svgShape"></path><path fill="#127b9e" d="M72.1 286.8h7.2v.6h-7.2z" transform="rotate(173.514 75.738 287.064)" class="colorc9cdea svgShape"></path><path fill="#29323d" d="M55.2 284.7l-2.5-.3-.5 3.6 7.2.9c0-.6-.3-1.1-.8-1.3l-3.4-1.3v-1.6z" class="color29323d svgShape"></path><path fill="#127b9e" d="M52.1 288.5h7.2v.6h-7.2z" transform="rotate(-172.455 55.675 288.743)" class="colorc9cdea svgShape"></path><path fill="#535975" d="M70.1 281.6h5.8v2h-5.8z" transform="rotate(-10.454 73.006 282.648)" class="color535975 svgShape"></path><path fill="#535975" d="M51.4 282.9h5.8v2h-5.8z" transform="rotate(11.098 54.357 283.911)" class="color535975 svgShape"></path><g fill="#000000" class="color000 svgShape"><path fill="#dfb48f" d="M60.2 224.9l3.6-.1.1-8-3.7.1z" class="colordfb48f svgShape"></path><path fill="#e5be9c" d="M64.7 222.5c2.5 0 4.6-2 4.6-4.5l.1-5.6-9.1-.1-.1 5.6c0 2.6 2 4.6 4.5 4.6z" class="colore5be9c svgShape"></path><path fill="#282c3c" d="M60.3 216.5h1.3c.4 0 .6-.3.6-.7-.2-.9-.3-2.5.3-2.7.9-.3 5.5 1 7.1-.1 2.2-1.6.7-4.4-1.3-4.5-2-.2-1.7 2.2-4.1 2.1-2.3-.1-5.9-1.1-4.4 5.2l.5.7z" class="color282c3c svgShape"></path><path fill="#282c3c" d="M69.5 218.1s-.4 0-1.2-.8c-.8-.7-2.8-.8-4 .3-1.3 1.1-2.2-2.4-2.2-2.4l-.7 1.1s.3 1.7-1.3 1.7c0 0 .3 5.1 5.4 4.6 0 .1 3.7-.5 4-4.5z" class="color282c3c svgShape"></path><circle cx="60.1" cy="216.7" r="1.4" fill="#e5be9c" class="colore5be9c svgShape"></circle></g><path fill="#dfb48f" d="M60.2 223.3l3 2.2.6-2.2z" class="colordfb48f svgShape"></path><path fill="#0092ca" d="M63.2 225.5l-3 1.1v-3.3zm0 0l1.5.8-.9-3z" class="color7d6ef4 svgShape"></path><g fill="#000000" class="color000 svgShape"><path fill="#127b9e" d="M39.9 233.6v13.8c0 1.3 1 2.3 2.3 2.3h37.4c1.3 0 2.3-1 2.3-2.3v-13.8c0-1.3-1-2.3-2.3-2.3H42.2c-1.3-.1-2.3 1-2.3 2.3z" class="colorc9cdea svgShape"></path><path fill="#57b7dc" d="M39.9 233.6v1.3h42v-1.3c0-1.3-1-2.3-2.3-2.3H42.2c-1.3-.1-2.3 1-2.3 2.3z" class="color95b9fc svgShape"></path><circle cx="79.9" cy="233.2" r=".5" fill="#ffffff" class="colorfff svgShape"></circle><circle cx="77.9" cy="233.2" r=".5" fill="#ffffff" class="colorfff svgShape"></circle><circle cx="76" cy="233.2" r=".5" fill="#ffffff" class="colorfff svgShape"></circle><path fill="#ffffff" d="M43.6 243.8h21.6c.4 0 .7-.3.7-.7v-5.4c0-.4-.3-.7-.7-.7H43.6c-.4 0-.7.3-.7.7v5.4c0 .4.3.7.7.7zM43.4 246.9h29.3c.3 0 .5-.2.5-.5s-.2-.5-.5-.5H43.4c-.3 0-.5.2-.5.5s.3.5.5.5z" class="colorfff svgShape"></path></g><g fill="#000000" class="color000 svgShape"><circle cx="56.9" cy="249.2" r="2.3" fill="#e2b176" class="colore2b176 svgShape"></circle><path fill="#e2b176" d="M54 246.6l1.2 2.1c.3.5 1 .7 1.6.4.5-.3.7-1 .4-1.6l-1.2-2.1c-.3-.5-1-.7-1.6-.4-.5.3-.7 1-.4 1.6z" class="colore2b176 svgShape"></path><path fill="#0092ca" d="M53.8 248.1l3.8-1.9-5.3-10.5 6.8-7.9c.7-.9.6-2.3-.3-3-.9-.7-2.3-.6-3 .3l-7.7 9c-.5.7-.6 1.6-.3 2.3l6 11.7z" class="color583bf9 svgShape"></path></g></g><g fill="#000000" class="color000 svgShape"><path fill="#ffffff" d="M86.6 221.9l-.3-1-.3 1c-.3.8-1 1.5-1.9 1.9.9.4 1.6 1.1 1.9 1.9l.3 1 .3-1c.3-.8 1-1.5 1.9-1.9-1-.4-1.7-1.1-1.9-1.9zM261.6 193.9l-.6-1.6-.6 1.6c-.5 1.4-1.6 2.5-3.1 3.2 1.5.7 2.7 1.8 3.1 3.2l.6 1.6.6-1.6c.5-1.4 1.6-2.5 3.1-3.2-1.5-.6-2.6-1.8-3.1-3.2z" class="colorfff svgShape"></path></g><g fill="#000000" class="color000 svgShape"><path fill="#127b9e" d="M155.8 234l-1.4-2.9c-.2-.4-.6-.6-1-.6l-4.6.5c-.7.1-1.4-.3-1.6-1l-.7-1.7c-.3-.7 0-1.6.7-1.9.5-.3 1-.5 1-.6l.3.5c-.1 0-.6.3-1 .6-.4.2-.6.8-.4 1.2l.7 1.7c.2.4.6.7 1 .6l4.6-.5c.7-.1 1.3.3 1.6.9l1.4 2.9-.6.3z" class="colorc9cdea svgShape"></path><path fill="#459ab9" d="M155.8 221.2l-8.1 3.3c-.5.2-.7.8-.5 1.3l.6 1.4c.2.5.7.7 1.2.5l8.2-3.1c.5-.2.8-.8.5-1.3l-.7-1.6c-.2-.5-.7-.7-1.2-.5z" class="color6d67c6 svgShape"></path><path fill="#54c6f9" d="M155.4 232.5c-.4.2-.6.7-.5 1.1l1.7 5c.3.8 1.2 1.2 2 .8.7-.4.9-1.2.5-1.9l-2.6-4.6c-.1-.4-.7-.6-1.1-.4z" class="color8b94c8 svgShape"></path><g fill="#000000" class="color000 svgShape"><path fill="#d1657b" d="M128.6 268.7l-7.7-8.6c-.6-.8-.7-1.9-.2-2.7l7-10.1 4.2 2.5-6.1 8.7 6.7 7.3-3.9 2.9z" class="colord1657b svgShape"></path><circle cx="157.1" cy="236.4" r="2.2" fill="#e5be9c" class="colore5be9c svgShape"></circle><path fill="#e5be9c" d="M155.6 239.9l1.5-1.8c.4-.5.3-1.2-.1-1.6-.5-.4-1.2-.3-1.6.1l-1.5 1.8c-.4.5-.3 1.2.1 1.6.5.4 1.2.4 1.6-.1z" class="colore5be9c svgShape"></path><g fill="#000000" class="color000 svgShape"><path fill="#dfb48f" d="M132.1 246.4h3.8l-.1-7.4h-3.9z" class="colordfb48f svgShape"></path><path fill="#e5be9c" d="M134.9 243.6c2.4 0 4.3-2 4.3-4.4l-.1-5.4-8.7.1.1 5.4c.1 2.4 2 4.3 4.4 4.3z" class="colore5be9c svgShape"></path><path fill="#282c3c" d="M136.6 236.7v4c0 1.6-1.2 2.9-2.7 2.9h-.8c-2.6 0-4.8-2.2-4.8-4.9v-3.6l8.1-.1.2 1.7z" class="color282c3c svgShape"></path><path fill="#282c3c" d="M136.2 236.2s2.1.1 3.3-.2c1.6-.3 2.2-3.5.9-4.5-.1 0-.1-.1-.2-.1-1.5-1.1-3.5 1.2-3.4 1.3 0 .1-.6 3.5-.6 3.5z" class="color282c3c svgShape"></path><path fill="#282c3c" d="M138.2 233.5s-3.5-3-7.4-1.1c0 0-1.3.3-2.5 2.7l7.6 1.8 2.3-3.4z" class="color282c3c svgShape"></path><circle cx="136.5" cy="238.8" r="1.3" fill="#e5be9c" class="colore5be9c svgShape"></circle><path fill="#e5be9c" d="M138.7 239.3h.6c.3 0 .6-.3.6-.6s-.3-.6-.6-.6h-.6v1.2z" class="colore5be9c svgShape"></path><path fill="#df7383" d="M136.9 246h-6.2c-3.1 0-4.2 2.6-3.6 5.3l1.2 6.7.6 6.3h11.2l1.2-13.8c-.2-2.5-1.1-4.5-4.4-4.5z" class="colordf7383 svgShape"></path><path fill="#0092ca" d="M139.9 264.3L144 285l.1 17.6-2.9.1-2.6-17.1-5.4-14.8.3 15.1-4.4 16.7h-3l2.3-16.7-1.8-12.9s-.5-5.7 2.1-8.8h11.2z" class="color583bf7 svgShape"></path><path fill="#0092ca" d="M130.2 268.7h5.3v4h-5.3z" class="color583bf7 svgShape"></path><path fill="#e5be9c" d="M144.1 302.6l.1 2.4h-2.7l-.3-2.3zm-15 .1l-.5 2.6-2.8-.1.3-2.5z" class="colore5be9c svgShape"></path><path fill="#c8c8c8" d="M133.1 272.7h-2.9s2.6 2.9 3.1 5.8l-.2-5.8z" opacity=".44" class="colorc8c8c8 svgShape"></path><path fill="#29323d" d="M144 305h1.7c1 0 2.1.3 2.4 1.5l.1.8h-7s-.5-1.3.2-2.3h2.6zm-15.7 0h1.7c1 0 2.1.3 2.4 1.5l.1.8h-7s-.5-1.3.2-2.3h2.6z" class="color29323d svgShape"></path><path fill="#df7383" d="M136.9 250.9l-.4-4.9 10.4-.9 6.5-7.6 3.7 3.2-7.1 8.4c-.4.5-1 .8-1.7.9l-11.4.9z" class="colordf7383 svgShape"></path></g><path fill="#c8c8c8" d="M141.1 250.6l-2.9.1 2.4 6.1z" opacity=".44" class="colorc8c8c8 svgShape"></path></g><circle cx="128.5" cy="234.4" r="1.8" fill="#df7383" class="colordf7383 svgShape"></circle><path fill="#2e3343" d="M129 233.6s-3.9-2.5-5.4 2.7c-1.4 4.9 2.5 10.8 3.3 15.2.1.5.5.9 1.1.9h4.2c.6 0 1.1-.5 1.1-1.2-.1-2.1-1.2-6.1-4.4-11 0 0-3.4-4.6.1-5.2 0 .1.8-.8 0-1.4z" class="color2e3343 svgShape"></path></g><g fill="#000000" class="color000 svgShape"><path fill="#54c6f9" d="M263.9 293c-.4 0-.7-.2-.8-.6l-25.7-103.9c-.1-.4.2-.8.6-.8.4-.1.9.2 1 .5l25.7 103.9c.1.4-.2.8-.6.8 0 .1-.1.1-.2.1zM245.1 293c-.4 0-.7-.2-.8-.6l-25.8-103.9c-.1-.4.2-.8.6-.8.4-.1.9.2 1 .5l25.8 103.9c.1.4-.2.8-.6.8-.1.1-.1.1-.2.1z" class="color8b94c8 svgShape"></path><path fill="#54c6f9" d="M239.6 194.6h-18.9c-.4 0-.8-.3-.8-.7 0-.4.4-.7.8-.7h18.9c.4 0 .8.3.8.7 0 .4-.3.7-.8.7zM241.7 202.9h-18.9c-.4 0-.8-.3-.8-.7 0-.4.4-.7.8-.7h18.9c.4 0 .8.3.8.7 0 .4-.4.7-.8.7zM243.7 211.2h-18.9c-.4 0-.8-.3-.8-.7 0-.4.4-.7.8-.7h18.9c.4 0 .8.3.8.7 0 .4-.3.7-.8.7zM245.8 219.5h-18.9c-.4 0-.8-.3-.8-.7 0-.4.4-.7.8-.7h18.9c.4 0 .8.3.8.7 0 .4-.4.7-.8.7zM247.9 227.8H229c-.4 0-.8-.3-.8-.7 0-.4.4-.7.8-.7h18.9c.4 0 .8.3.8.7 0 .4-.4.7-.8.7zM249.9 236.2H231c-.4 0-.8-.3-.8-.7 0-.4.4-.7.8-.7h18.9c.4 0 .8.3.8.7 0 .3-.3.7-.8.7zM252 244.5h-19c-.4 0-.8-.3-.8-.7 0-.4.4-.7.8-.7h19c.4 0 .8.3.8.7 0 .3-.4.7-.8.7zM254 252.8h-18.9c-.4 0-.8-.3-.8-.7 0-.4.4-.7.8-.7H254c.4 0 .8.3.8.7.1.4-.3.7-.8.7zM256.1 261.1h-18.9c-.4 0-.8-.3-.8-.7 0-.4.4-.7.8-.7h18.9c.4 0 .8.3.8.7 0 .4-.4.7-.8.7zM258.2 269.4h-18.9c-.4 0-.8-.3-.8-.7 0-.4.4-.7.8-.7h18.9c.4 0 .8.3.8.7 0 .4-.4.7-.8.7zM260.2 277.7h-18.9c-.4 0-.8-.3-.8-.7s.4-.7.8-.7h18.9c.4 0 .8.3.8.7s-.3.7-.8.7z" class="color8b94c8 svgShape"></path><g fill="#000000" class="color000 svgShape"><path fill="#29323d" d="M233.8 246.8l3.2-.6 1.4 5.2-9.1.6-.1-.7c-.1-.7.3-1.4 1-1.7l4.3-.8-.7-2z" class="color29323d svgShape"></path><path fill="#dfb48f" d="M246.2 203.2h-3.9v-8.3h3.8z" class="colordfb48f svgShape"></path><path fill="#e5be9c" d="M241.4 200.8c-2.6 0-4.7-2.1-4.7-4.7l-.1-5.8 9.4-.1.1 5.8c0 2.7-2.1 4.8-4.7 4.8z" class="colore5be9c svgShape"></path><path fill="#282c3c" d="M246 194.5h-1.3c-.4 0-.6-.3-.6-.7.2-1 .3-2.6-.3-2.8-.9-.3-5.7 1.1-7.3-.1-2.3-1.7-.7-4.5 1.3-4.7 2.1-.2 1.8 2.2 4.2 2.2 2.4-.1 6.1-1.1 4.6 5.3l-.6.8z" class="color282c3c svgShape"></path><circle cx="246.2" cy="194.8" r="1.5" fill="#e5be9c" class="colore5be9c svgShape"></circle><g fill="#000000" class="color000 svgShape"><path fill="#29323d" d="M252.5 255.9l3.2-.4 1.6 5.5-9.1.2-.1-.7c0-.7.4-1.4 1.1-1.6l4.1-.6-.8-2.4z" class="color29323d svgShape"></path><path fill="#3d415b" d="M238.4 221.9l-9.1 2.8c-1.6.3-2.6 1.9-2.2 3.5l5.7 19.3 5.5-.6-4.9-17.7 13.5-2.9c2-.2 3.5-1.8 3.5-3.8v-.6h-12z" class="color3d415b svgShape"></path><path fill="#3d415b" d="M248.3 224.2l2.1 13.5 6.1 18.9-4.8.3-6.7-18.7-4-14z" class="color3d415b svgShape"></path></g><path fill="#0092ca" d="M242 202.3c-2.6 0-4.7 2.4-4.7 5.3l1.1 14.2 13.1.6-1.1-15.2c0-2.7-1.9-4.9-4.4-4.9h-4z" class="color583bf9 svgShape"></path><path fill="#ffffff" d="M237.8 197.2h3.4s-.1 1.4-2 1.3c-1.4-.1-1.4-1.3-1.4-1.3z" class="colorfff svgShape"></path></g><g fill="#000000" class="color000 svgShape"><circle cx="212.1" cy="206.9" r="2.7" fill="#e5be9c" class="colore5be9c svgShape"></circle><path fill="none" stroke="#e5be9c" stroke-linejoin="round" stroke-miterlimit="10" stroke-width="4.025" d="M243.1 206.4l-12.7 5.5-17.8-5" class="colorStrokee5be9c svgStroke"></path><path fill="#0092ca" d="M235 206l3.1 6.5 5.6-3.1c1.5-.8 2-2.8 1.1-4.2-.7-1.2-2.3-1.8-3.6-1.3L235 206z" class="color7d6ef4 svgShape"></path></g><g fill="#000000" class="color000 svgShape"><path fill="#282c3c" d="M237.3 196.1c-1 0-1.8-.8-1.8-1.8s.8-1.8 1.8-1.8 1.8.8 1.8 1.8-.8 1.8-1.8 1.8zm0-3.1c-.7 0-1.3.6-1.3 1.3 0 .7.6 1.3 1.3 1.3.7 0 1.3-.6 1.3-1.3 0-.7-.6-1.3-1.3-1.3zM241.1 196.1c-1 0-1.8-.8-1.8-1.8s.8-1.8 1.8-1.8 1.8.8 1.8 1.8-.8 1.8-1.8 1.8zm0-3.1c-.7 0-1.3.6-1.3 1.3 0 .7.6 1.3 1.3 1.3.7 0 1.3-.6 1.3-1.3 0-.7-.5-1.3-1.3-1.3z" class="color282c3c svgShape"></path><path fill="#282c3c" d="M238.7 193.4h.9v.5h-.9zM242.4 193.8h1.5v.5h-1.5z" class="color282c3c svgShape"></path></g></g><path fill="#e5be9c" d="M170.9 164.6s-.6-2-3.9-1.9c-3.3.2-4.4 2.3-3.3 3.6 1.1 1.3 3.9.4 5.7-1.8l1.5.1zM193.8 164.6s-.6-2-3.9-1.9c-3.3.2-4.4 2.3-3.3 3.6 1.1 1.3 3.9.4 5.7-1.8l1.5.1z" class="colore5be9c svgShape"></path><path fill="#4eb4d0" d="M340 123.2c-28.2-30.8-61-28.4-77.9-19-43 23.9-92.4-49.8-28.7-61.4S340 38.4 340 38.4v84.8z" class="colorfafbfc svgShape"></path><circle cx="51.3" cy="57.9" r="41.5" fill="#4eb4d0" class="colorf4f6f9 svgShape"></circle></svg></g></svg>